<svg width="503" height="258" fill="none" xmlns="http://www.w3.org/2000/svg"><g filter="url(#a)" fill-rule="evenodd" clip-rule="evenodd" fill="#001"><path d="m194.995 248.32 22.591-13.026h23.262c9.585 0 15.585-10.385 10.81-18.711l-.403-.701 78.706-45.379 33.563 58.524c4.793 8.356 16.826 8.356 21.619 0l112.181-195.61c4.775-8.326-1.224-18.711-10.809-18.711H262.152c-9.585 0-15.585 10.385-10.81 18.711l.644 1.123-56.991-32.86c-8.304-4.788-18.662 1.228-18.662 10.838v72.723l-36.857-64.268c-4.793-8.356-16.826-8.356-21.619 0L5.676 216.583C.9 224.909 6.9 235.294 16.485 235.294h159.848v2.188c0 9.61 10.358 15.626 18.662 10.838Zm-3.656-6.374 11.536-6.652h-19.208v2.188c0 3.966 4.266 6.427 7.672 4.464Zm-7.672-14.005h31.961l25.615-14.768-57.576-100.395v115.163Zm61.633-7.693-.402-.701-14.559 8.394h10.509c3.956 0 6.411-4.278 4.452-7.693Zm-61.633-122.22L247.6 209.507l78.705-45.379-67.051-116.916-67.915-39.158c-3.406-1.963-7.672.498-7.672 4.464v85.51Zm186.214 127.333-33.563-58.524 53.765-30.999c8.334-4.805 8.334-16.871 0-21.676L264.624 41.827 257.7 29.752c-1.959-3.415.496-7.693 4.452-7.693h224.363c3.956 0 6.411 4.278 4.452 7.693L378.785 225.36c-1.972 3.44-6.931 3.44-8.904 0Zm16.546-104.825L271.892 54.499l60.77 105.964 53.765-30.999c3.431-1.978 3.431-6.95 0-8.928ZM133.119 24.639l43.214 75.352v127.95H16.485c-3.956 0-6.41-4.278-4.452-7.693l112.182-195.61c1.972-3.44 6.931-3.44 8.904 0Z"/><path d="M323 216.912c0 10.152-8.208 18.382-18.333 18.382-10.126 0-18.334-8.23-18.334-18.382 0-10.153 8.208-18.383 18.334-18.383 10.125 0 18.333 8.23 18.333 18.383Zm-7.333 0c0 6.091-4.925 11.029-11 11.029s-11-4.938-11-11.029c0-6.092 4.925-11.03 11-11.03s11 4.938 11 11.03Z"/></g><defs><filter id="a" x="0" y="0" width="503" height="258" filterUnits="userSpaceOnUse" color-interpolation-filters="sRGB"><feFlood flood-opacity="0" result="BackgroundImageFix"/><feColorMatrix in="SourceAlpha" values="0 0 0 0 0 0 0 0 0 0 0 0 0 0 0 0 0 0 127 0" result="hardAlpha"/><feOffset dy="4"/><feGaussianBlur stdDeviation="2"/><feColorMatrix values="0 0 0 0 0 0 0 0 0 0 0 0 0 0 0 0 0 0 0.25 0"/><feBlend in2="BackgroundImageFix" result="effect1_dropShadow_4_30"/><feBlend in="SourceGraphic" in2="effect1_dropShadow_4_30" result="shape"/></filter></defs></svg>