<svg width="298" height="360" fill="none" xmlns="http://www.w3.org/2000/svg"><g filter="url(#a)" fill="#001"><path d="M204.333 112.167c8.889-8.811 8.889-24.476 0-33.287l-36.455-36.881c-9.283-9.332-24.473-9.332-33.756 0l-36.455 36.88c-8.89 8.812-8.89 24.477 0 33.288l36.543 36.224c8.889 8.812 24.691 8.812 33.58 0l36.543-36.224Zm-85 51.713c8.889 8.811 8.889 24.476 0 33.287L82.79 233.391c-8.889 8.812-24.691 8.812-33.58 0l-36.543-36.224c-8.89-8.811-8.89-24.476 0-33.287l36.455-36.881c9.283-9.332 24.473-9.332 33.756 0l36.455 36.881Zm85 85c8.889 8.811 8.889 24.476 0 33.287l-36.543 36.224c-8.889 8.812-24.691 8.812-33.58 0l-36.543-36.224c-8.89-8.811-8.89-24.476 0-33.287l36.455-36.881c9.283-9.332 24.473-9.332 33.756 0l36.455 36.881Zm85-85c8.889 8.811 8.889 24.476 0 33.287l-36.543 36.224c-8.889 8.812-24.691 8.812-33.58 0l-36.543-36.224c-8.889-8.811-8.889-24.476 0-33.287l36.455-36.881c9.283-9.332 24.473-9.332 33.756 0l36.455 36.881Z"/></g><g filter="url(#b)"><path d="M289.333 163.88c8.889 8.811 8.889 24.476 0 33.287L251 235V125l38.333 38.88Z" fill="#00BCE6"/></g><g filter="url(#c)"><path stroke="#FF2163" stroke-width="16" d="M246 20v320"/></g><defs><filter id="a" x="0" y="35" width="298" height="298" filterUnits="userSpaceOnUse" color-interpolation-filters="sRGB"><feFlood flood-opacity="0" result="BackgroundImageFix"/><feColorMatrix in="SourceAlpha" values="0 0 0 0 0 0 0 0 0 0 0 0 0 0 0 0 0 0 127 0" result="hardAlpha"/><feOffset dx="-2" dy="4"/><feGaussianBlur stdDeviation="2"/><feColorMatrix values="0 0 0 0 0 0 0 0 0 0 0 0 0 0 0 0 0 0 0.32 0"/><feBlend in2="BackgroundImageFix" result="effect1_dropShadow_5_23"/><feBlend in="SourceGraphic" in2="effect1_dropShadow_5_23" result="shape"/></filter><filter id="b" x="245" y="125" width="53" height="118" filterUnits="userSpaceOnUse" color-interpolation-filters="sRGB"><feFlood flood-opacity="0" result="BackgroundImageFix"/><feColorMatrix in="SourceAlpha" values="0 0 0 0 0 0 0 0 0 0 0 0 0 0 0 0 0 0 127 0" result="hardAlpha"/><feOffset dx="-2" dy="4"/><feGaussianBlur stdDeviation="2"/><feColorMatrix values="0 0 0 0 0 0 0 0 0 0 0 0 0 0 0 0 0 0 0.32 0"/><feBlend in2="BackgroundImageFix" result="effect1_dropShadow_5_23"/><feBlend in="SourceGraphic" in2="effect1_dropShadow_5_23" result="shape"/></filter><filter id="c" x="210" y="0" width="56" height="360" filterUnits="userSpaceOnUse" color-interpolation-filters="sRGB"><feFlood flood-opacity="0" result="BackgroundImageFix"/><feColorMatrix in="SourceAlpha" values="0 0 0 0 0 0 0 0 0 0 0 0 0 0 0 0 0 0 127 0" result="hardAlpha"/><feOffset dx="-8"/><feGaussianBlur stdDeviation="10"/><feComposite in2="hardAlpha" operator="out"/><feColorMatrix values="0 0 0 0 1 0 0 0 0 0.129412 0 0 0 0 0.388235 0 0 0 1 0"/><feBlend in2="BackgroundImageFix" result="effect1_dropShadow_5_23"/><feBlend in="SourceGraphic" in2="effect1_dropShadow_5_23" result="shape"/><feGaussianBlur stdDeviation="2" result="effect2_foregroundBlur_5_23"/></filter></defs></svg>